<svg width="272" height="272" viewBox="0 0 272 272" fill="none" xmlns="http://www.w3.org/2000/svg">
<path d="M148.465 101.938C160.556 111.774 167.935 124.675 171 140C171 145.94 171 151.88 171 158C155.82 158 140.64 158 125 158C132.352 167.047 132.352 167.047 140.062 175.75C140.565 176.293 141.067 176.836 141.585 177.395C145.48 181.555 149.566 185.414 154 189C153.322 194.16 151.549 195.958 147.621 199.164C134.245 208.534 119.299 212.375 103 211C100.798 210.395 98.6025 209.766 96.4141 209.113C87.9722 207.235 82.7595 209.819 75.375 213.812C73.1149 214.971 70.852 216.123 68.5859 217.27C67.6067 217.791 66.6275 218.313 65.6187 218.851C63 220 63 220 59 220C59.3725 214.872 59.9261 209.923 61.1836 204.93C61.3879 204.096 61.5922 203.262 61.8027 202.402C62.2294 200.703 62.6804 199.011 63.1543 197.324C64.3169 192.463 64.3169 192.463 62.8726 187.831C61.8227 186.467 60.7292 185.136 59.596 183.84C57.3958 181.303 56.1236 178.549 54.75 175.5C54.2705 174.458 53.7909 173.417 53.2969 172.344C48.1396 159.047 47.739 142.211 52.7461 128.812C56.905 119.484 61.7678 112.258 69 105C69.5414 104.435 70.0828 103.871 70.6406 103.289C91.6141 83.2689 126.513 85.1419 148.465 101.938Z" fill="#34ADE1"/>
<path d="M190 100C194.388 102.154 197.521 104.776 200 109C201.366 114.102 201.609 118.518 199.375 123.375C196.821 127.749 193.837 130.388 189 132C183.303 132.564 178.872 132.286 174 129C169.842 125.073 168.301 120.623 168 115C168.7 110.043 170.222 106.284 174.062 103C179.338 99.4084 183.697 99.3581 190 100Z" fill="#30ACE2"/>
<path d="M208.875 56.125C212.71 59.5088 214.667 62.6809 215.387 67.6914C215.621 73.6214 215.113 77.4298 211 82C206.499 85.9556 202.312 86.3534 196.504 86.2773C191.441 85.7166 188.843 83.0021 185.688 79.25C183.34 74.7289 182.421 70.8196 183.441 65.8516C185.281 60.1962 188.124 57.7257 193.188 54.6875C198.494 53.3903 203.821 54.1475 208.875 56.125Z" fill="#F6BD3F"/>
<path d="M169 77C172.021 78.7476 174.416 80.8322 176 84C176.509 90.104 176.057 93.1077 172 98C168.303 99.8486 164.035 99.4759 160 99C157.066 97.2035 155.528 96.0559 154 93C153.562 88.7118 153.551 85.0558 155.25 81.0625C158.937 76.7175 163.432 75.9207 169 77Z" fill="#91C747"/>
<path d="M139 176C144.032 180.298 149.027 184.634 154 189C153.322 194.16 151.549 195.958 147.621 199.164C134.245 208.534 119.299 212.375 103 211C100.798 210.395 98.6025 209.766 96.4141 209.113C87.9722 207.235 82.7595 209.819 75.375 213.812C73.1149 214.971 70.852 216.123 68.5859 217.27C67.6067 217.791 66.6275 218.313 65.6187 218.851C63 220 63 220 59 220C59.5466 211.819 61.1712 203.982 63 196C63.33 196 63.66 196 64 196C64.1634 201.234 63.6055 205.863 62.5 210.938C62.3569 211.621 62.2138 212.305 62.0664 213.01C61.7172 214.674 61.3595 216.337 61 218C61.9294 217.529 62.8588 217.059 63.8164 216.574C65.065 215.945 66.3138 215.316 67.5625 214.688C68.1716 214.379 68.7807 214.07 69.4082 213.752C72.5017 212.197 75.5994 210.722 78.793 209.383C82.0181 208.103 82.0181 208.103 84.75 206.188C89.7004 204.379 93.992 205.761 99 207C99 207.66 99 208.32 99 209C102.355 208.889 105.709 208.759 109.062 208.625C110.005 208.594 110.948 208.563 111.92 208.531C117.292 208.307 121.909 207.736 127 206C128.048 205.665 128.048 205.665 129.117 205.324C135.768 202.915 142.047 199.817 147.438 195.188C150 193 150 193 152 193C151.451 189.264 150.072 187.854 147.188 185.5C146.469 184.898 145.751 184.296 145.012 183.676C144.348 183.123 143.684 182.57 143 182C140.5 179.688 140.5 179.688 139 178C139 177.34 139 176.68 139 176Z" fill="#D8E8EF"/>
<path d="M124 91C139.411 93.7342 151.681 102.519 161 115C169.673 129.489 171 140.389 171 158C155.82 158 140.64 158 125 158C126.65 159.98 128.3 161.96 130 164C129.505 164.99 129.505 164.99 129 166C127.827 164.714 126.662 163.421 125.5 162.125C124.85 161.406 124.201 160.686 123.531 159.945C122 158 122 158 122 156C137.51 156 153.02 156 169 156C167.989 136.788 164.998 120.695 151 107C142.94 100.031 133.976 96.4475 124 93C124 92.34 124 91.68 124 91Z" fill="#CAE2EB"/>
<path d="M182 137.312C185.634 137.543 186.719 137.773 189.625 140.125C191.546 144.142 191.655 147.035 190.25 151.25C188.665 153.469 187.59 154.137 185 155C181.273 155.476 179.493 155.274 176.187 153.438C173.293 150.212 172.926 148.314 173 144C174.92 138.972 176.781 137.59 182 137.312Z" fill="#F9BF26"/>
<path d="M208.875 56.125C212.71 59.5088 214.667 62.6809 215.387 67.6914C215.621 73.6214 215.113 77.4298 211 82C206.498 85.9564 202.315 86.3444 196.508 86.2852C191.803 85.7502 189.061 83.2734 186.125 79.75C185.754 79.1725 185.382 78.595 185 78C185.33 77.34 185.66 76.68 186 76C186.577 76.7837 187.155 77.5675 187.75 78.375C190.332 81.3877 192.203 82.7485 196.148 83.3008C201.164 83.3272 204.74 82.9417 209 80C212.624 76.134 212.559 71.7341 212.422 66.668C211.749 62.4136 210.239 60.7973 207 58C203.617 56.7757 200.319 56.8987 196.75 56.9375C195.134 56.951 195.134 56.951 193.484 56.9648C192.255 56.9822 192.255 56.9822 191 57C195.717 52.283 203.144 53.8823 208.875 56.125Z" fill="#F3EACF"/>
<path d="M169 77C172.021 78.7476 174.416 80.8322 176 84C176.509 90.104 176.057 93.1077 172 98C168.303 99.8486 164.035 99.4759 160 99C157.066 97.2035 155.528 96.0559 154 93C153.562 88.7118 153.551 85.0558 155.25 81.0625C158.937 76.7175 163.432 75.9207 169 77ZM157.375 81.5625C155.506 84.8748 155 87.1858 155 91C156.25 94.5 156.25 94.5 159 97C161.738 98.0927 164.077 98.3535 167 98C171.275 95.7877 171.275 95.7877 174 92C174.485 86.6707 174.485 86.6707 172.824 81.7734C170.374 79.3913 168.937 79.4634 165.562 79.5C162.104 79.6416 160.375 79.7767 157.375 81.5625Z" fill="#E4EBDA"/>
<path d="M63 196C63.33 196 63.66 196 64 196C64.1634 201.234 63.6055 205.863 62.5 210.938C62.3569 211.621 62.2138 212.305 62.0664 213.01C61.7172 214.674 61.3595 216.337 61 218C62.3941 217.294 62.3941 217.294 63.8164 216.574C65.065 215.945 66.3138 215.316 67.5625 214.688C68.1716 214.379 68.7807 214.07 69.4082 213.752C72.5017 212.197 75.5994 210.722 78.793 209.383C82.0181 208.103 82.0181 208.103 84.75 206.188C89.7004 204.379 93.992 205.761 99 207C96.5848 207.743 94.7834 207.99 92.2349 207.867C88.487 208.021 86.2294 208.988 82.8672 210.625C81.7315 211.166 80.5959 211.708 79.4258 212.266C78.254 212.838 77.0823 213.41 75.875 214C73.5424 215.132 71.2066 216.257 68.8672 217.375C67.322 218.129 67.322 218.129 65.7456 218.898C63 220 63 220 59 220C59.5466 211.819 61.1712 203.982 63 196Z" fill="#C9DFE8"/>
<path d="M190 101C193.91 102.117 196.484 103.852 198.98 107.102C201.364 111.539 201.741 116.47 200.332 121.281C198.368 125.579 196.032 128.415 192 131C186.794 132.735 181.851 132.663 176.688 130.812C173.763 128.84 171.952 126.928 170 124C170 123.34 170 122.68 170 122C170.66 122 171.32 122 172 122C172.454 122.784 172.907 123.567 173.375 124.375C175.168 127.272 175.905 127.804 179 129C183.356 129.625 187.931 129.988 191.98 128.055C195.187 125.537 197.084 122.938 198 119C198.588 112.822 198.051 109.951 194 105C192.703 103.631 191.382 102.283 190 101Z" fill="#D5E7EE"/>
<path d="M182 137.312C185.634 137.543 186.719 137.773 189.625 140.125C191.546 144.142 191.655 147.035 190.25 151.25C188.665 153.469 187.59 154.137 185 155C181.273 155.476 179.493 155.274 176.187 153.438C173.293 150.212 172.926 148.314 173 144C174.92 138.972 176.781 137.59 182 137.312ZM176.062 140.625C174.698 143.676 174.586 145.687 175 149C175.902 151.481 175.902 151.481 178 153C181.918 153.57 184.072 153.595 187.437 151.438C189.595 148.072 189.57 145.918 189 142C186.678 139.121 185.118 139.014 181.437 138.562C178.024 138.682 178.024 138.682 176.062 140.625Z" fill="#F3ECD7"/>
<path d="M184.625 99.9375C186.129 99.951 186.129 99.951 187.664 99.9648C188.435 99.9764 189.206 99.988 190 100C190 100.33 190 100.66 190 101C189.408 101.014 188.817 101.028 188.207 101.043C183.82 101.308 181.605 101.5 178.125 104.375C177.424 105.241 176.723 106.107 176 107C174.313 108.812 174.313 108.812 173 110C172.34 110 171.68 110 171 110C170.67 113.96 170.34 117.92 170 122C169.67 122 169.34 122 169 122C167.607 116.047 168.132 111.469 171 106C175.084 101.417 178.605 99.8675 184.625 99.9375Z" fill="#B0D6E6"/>
<path d="M99 207C96.5572 207.752 94.7405 207.989 92.1602 207.875C88.2757 208.029 85.8872 209.241 82.4375 211C78.3897 213.06 75.5777 214.409 71 214C74.3759 211.164 77.9441 209.678 82 208C83.3613 207.103 83.3613 207.103 84.75 206.188C89.7004 204.379 93.992 205.761 99 207Z" fill="#B9DBE8"/>
<path d="M169 77C169 77.99 169 78.98 169 80C165.37 80.33 161.74 80.66 158 81C157.34 82.65 156.68 84.3 156 86C155.25 84.25 155.25 84.25 155 82C159.397 76.6929 162.488 76.895 169 77Z" fill="#CBE0AF"/>
<path d="M61 114C61.6719 115.695 61.6719 115.695 62 118C60.8906 120.367 60.8906 120.367 59.25 122.875C56.9325 126.518 54.847 130.101 53 134C52 131 52 131 52.605 129.207C52.939 128.558 53.273 127.91 53.6172 127.242C53.9768 126.534 54.3365 125.827 54.707 125.098C55.0925 124.364 55.4779 123.631 55.875 122.875C56.4415 121.763 56.4415 121.763 57.0195 120.629C59.8173 115.183 59.8173 115.183 61 114Z" fill="#BDDBE8"/>
<path d="M189 57C189.66 57.33 190.32 57.66 191 58C190.476 58.6922 190.476 58.6922 189.941 59.3984C186.131 64.8607 185.149 69.3874 185 76C182.988 72.4905 182.825 70.0854 183.445 66.0352C184.408 62.5016 186.422 59.5781 189 57Z" fill="#F1EAD3"/>
<path d="M76 99C76.66 99.33 77.32 99.66 78 100C76 103 76 103 73.875 104.188C69.6568 106.847 66.4346 110.412 63 114C63 111 63 111 65.082 108.59C65.9831 107.715 66.8841 106.839 67.8125 105.938C68.7058 105.06 69.5991 104.182 70.5195 103.277C73 101 73 101 76 99Z" fill="#D3E5EB"/>
<path d="M185 76C185.459 76.4099 185.918 76.8198 186.391 77.2422C187.004 77.781 187.618 78.3198 188.25 78.875C188.853 79.4087 189.457 79.9423 190.078 80.4922C194.561 84.0089 198.454 84.4454 204 85C204 85.33 204 85.66 204 86C198.955 86.3589 195.148 86.5843 190.562 84.25C188.304 82.2666 186.543 80.5713 185 78C185 77.34 185 76.68 185 76Z" fill="#F3EEDF"/>
<path d="M150 104C155.25 108.1 159.21 112.53 163 118C162.67 118.66 162.34 119.32 162 120C158.828 117.886 157.883 116.097 156.117 112.812C154.477 110.152 152.23 108.168 150 106C150 105.34 150 104.68 150 104Z" fill="#DAE8EE"/>
<path d="M74 214C69.5033 217.777 64.9029 220 59 220C59 218.35 59 216.7 59 215C59.33 216.32 59.66 217.64 60 219C60.5917 218.639 61.1834 218.278 61.793 217.906C62.9783 217.21 62.9783 217.21 64.1875 216.5C64.9648 216.036 65.7421 215.572 66.543 215.094C69.241 213.893 71.0807 213.793 74 214Z" fill="#DDECF1"/>
<path d="M124 91C125.438 91.3105 126.875 91.6235 128.312 91.9375C129.113 92.1115 129.914 92.2855 130.738 92.4648C133 93 133 93 136 94C136.33 94.99 136.66 95.98 137 97C135.396 96.5214 133.792 96.0421 132.188 95.5625C131.294 95.2957 130.401 95.0288 129.48 94.7539C127.645 94.1961 125.82 93.6066 124 93C124 92.34 124 91.68 124 91Z" fill="#BDDCE9"/>
</svg>